<svg width="24" height="24" viewBox="0 0 24 24" fill="none" xmlns="http://www.w3.org/2000/svg">
  <path d="M12 8.5C10.067 8.5 8.5 10.067 8.5 12C8.5 13.933 10.067 15.5 12 15.5C13.933 15.5 15.5 13.933 15.5 12C15.5 10.067 13.933 8.5 12 8.5Z" stroke="currentColor" stroke-width="1.8"/>
  <path d="M19.4 13.2V10.8L17.7 10.2C17.5 9.6 17.2 9.1 16.8 8.6L17.2 6.9L15.1 5.7L13.9 6.9C13.3 6.7 12.7 6.6 12 6.6C11.3 6.6 10.7 6.7 10.1 6.9L8.9 5.7L6.8 6.9L7.2 8.6C6.8 9.1 6.5 9.6 6.3 10.2L4.6 10.8V13.2L6.3 13.8C6.5 14.4 6.8 14.9 7.2 15.4L6.8 17.1L8.9 18.3L10.1 17.1C10.7 17.3 11.3 17.4 12 17.4C12.7 17.4 13.3 17.3 13.9 17.1L15.1 18.3L17.2 17.1L16.8 15.4C17.2 14.9 17.5 14.4 17.7 13.8L19.4 13.2Z" stroke="currentColor" stroke-width="1.2" stroke-linejoin="round"/>
</svg>
